<svg id="Layer_1" data-name="Layer 1" xmlns="http://www.w3.org/2000/svg" viewBox="0 0 64 64"><defs><style>.cls-1{fill:#0093c8;}</style></defs><g id="_9klXPc.tif" data-name="9klXPc.tif"><path class="cls-1" d="M48,58.37c-1-.09-2-.18-3.07-.29a41.32,41.32,0,0,1-12.73-3.4A43.81,43.81,0,0,1,7.5,26.83a40.72,40.72,0,0,1-1.8-10.4A9.32,9.32,0,0,1,6,12.3a4.87,4.87,0,0,1,1.06-1.65c1-1,2.05-2,3-3.05a6.55,6.55,0,0,1,9.12-.24,7.4,7.4,0,0,1,2.44,3.91c.52,2.09,1.16,4.14,1.66,6.23a6.48,6.48,0,0,1-1.68,6.26c-.63.67-1.29,1.32-1.95,1.95a.73.73,0,0,0-.22.87A26.36,26.36,0,0,0,32.07,42.27a25.58,25.58,0,0,0,5.37,2.26.73.73,0,0,0,.87-.23c.62-.65,1.26-1.29,1.91-1.91a6.49,6.49,0,0,1,6.36-1.7c2.1.52,4.19,1.12,6.28,1.7a7.34,7.34,0,0,1,5.41,5.68c0,.12.07.25.11.37V50a7.34,7.34,0,0,1-2.58,4.52,28,28,0,0,0-2.18,2.18,5.09,5.09,0,0,1-2.51,1.49c-.19,0-.38.13-.57.19Z"/></g></svg>