<svg id="Layer_1" data-name="Layer 1" xmlns="http://www.w3.org/2000/svg" viewBox="0 0 64 64"><defs><style>.cls-1{fill:#0093c8;}</style></defs><g id="bi5yWi.tif"><path class="cls-1" d="M60,50.52v.71a5.73,5.73,0,0,1-2.52,3.36A13.58,13.58,0,0,1,55.05,56c-5.28,2.34-10.9,3.16-16.6,3.64-1.33.1-2.66.16-4,.25h-5c-1.32-.09-2.65-.15-4-.25-5.61-.47-11.14-1.29-16.36-3.52a11.56,11.56,0,0,1-3.94-2.58,3.41,3.41,0,0,1,0-5.23A14.64,14.64,0,0,1,11,45a46.81,46.81,0,0,1,9.82-2.27C21.91,44.3,23,45.77,24,47.17a62.06,62.06,0,0,0-6.74,1,28.67,28.67,0,0,0-6.91,2.25c-.22.12-.5.17-.65.48a14.92,14.92,0,0,0,3.5,1.54,51.43,51.43,0,0,0,10.49,2.08A73.31,73.31,0,0,0,34.39,55,56.75,56.75,0,0,0,51.5,52.23a21.35,21.35,0,0,0,2.41-1l.41-.29a12.75,12.75,0,0,0-3.26-1.5,50.15,50.15,0,0,0-11.12-2.21h0q1.7-2.28,3.19-4.48a40.76,40.76,0,0,1,12.49,3.41,12.51,12.51,0,0,1,2,1.23A5.55,5.55,0,0,1,60,50.52Z"/></g><path class="cls-1" d="M46.64,19.58a27.75,27.75,0,0,1-3,10.34A87.9,87.9,0,0,1,32.48,47.06c-.3.37-.52.6-.93.08C26.55,40.9,22,34.37,19,26.88a20.85,20.85,0,0,1-1.75-8.14A14.21,14.21,0,0,1,23.33,7a14.67,14.67,0,0,1,23.06,9A12.56,12.56,0,0,1,46.64,19.58ZM39.1,18A7.11,7.11,0,1,0,32,25.1,7.05,7.05,0,0,0,39.1,18Z"/></svg>