<svg id="Layer_1" data-name="Layer 1" xmlns="http://www.w3.org/2000/svg" viewBox="0 0 64 64"><defs><style>.cls-1{fill:#fff;}</style></defs><path class="cls-1" d="M5.32,2.81H58.64a3.28,3.28,0,0,1,2.55,3.4V57.76a3.22,3.22,0,0,1-3.44,3.42h-14c-.79,0-.8,0-.8-.78V39.27c0-.78,0-.81.8-.81,2,0,4,0,6,0,.52,0,.78-.1.85-.69.26-2.3.58-4.59.87-6.89.13-1.05.12-1.05-.94-1.05h-6.9c-.37,0-.73,0-.72-.54,0-2-.05-3.92,0-5.87.09-2.28,1.21-3.35,3.47-3.58.66-.07,1.33-.06,2-.09a21.31,21.31,0,0,0,3.39-.1A16.58,16.58,0,0,0,52,16.2c0-.92,0-1.86,0-2.79,0-1.33,0-1.36-1.32-1.48a34,34,0,0,0-7.55-.07,9.76,9.76,0,0,0-7,4,11.43,11.43,0,0,0-2.05,6.41c-.07,2.26,0,4.52,0,6.78,0,.69,0,.75-.74.75-2.05,0-4.11,0-6.16,0-.53,0-.73.16-.73.72,0,2.37,0,4.75,0,7.12,0,.77,0,.79.81.8,2,0,4,0,6,0,.54,0,.79.14.78.74q0,10.65,0,21.3c0,.5-.14.7-.68.7H6A3.13,3.13,0,0,1,3.1,59.37c-.11-.2-.19-.42-.29-.62V5.2A3.57,3.57,0,0,1,5.32,2.81Z"/></svg>