<svg id="Layer_1" data-name="Layer 1" xmlns="http://www.w3.org/2000/svg" viewBox="0 0 64 64"><defs><style>.cls-1{fill:#fff;}</style></defs><path class="cls-1" d="M46.83,61.14H17.26a17,17,0,0,1-5.46-1.65c-5.54-3-8.73-7.6-8.86-13.9-.18-9,0-18.07,0-27.11A14.4,14.4,0,0,1,3.66,14,16.25,16.25,0,0,1,19.18,2.86c8.58.06,17.16,0,25.75,0A14.27,14.27,0,0,1,47.19,3,16,16,0,0,1,59.6,12a17.24,17.24,0,0,1,1.55,5.26V46.81c0,.3-.11.59-.17.89a15.91,15.91,0,0,1-8.85,11.86A17.25,17.25,0,0,1,46.83,61.14ZM32.05,8.19v0H19.43a16.38,16.38,0,0,0-2.21.13,10.8,10.8,0,0,0-9,10.19c0,9,0,17.89,0,26.84a11,11,0,0,0,.13,1.52,10.78,10.78,0,0,0,10.19,9c8.94,0,17.89,0,26.83,0a11.28,11.28,0,0,0,1.53-.13,10.78,10.78,0,0,0,9-10.18c0-9,0-17.89,0-26.84a11,11,0,0,0-.13-1.52,10.83,10.83,0,0,0-10.19-9C41.07,8.15,36.56,8.19,32.05,8.19Z"/><path class="cls-1" d="M17,32a15.06,15.06,0,1,1,15,15A15.05,15.05,0,0,1,17,32Zm24.8,0A9.75,9.75,0,1,0,32,41.78,9.72,9.72,0,0,0,41.79,32Z"/><path class="cls-1" d="M47.67,20.26a3.82,3.82,0,0,1-3.84-3.82,3.85,3.85,0,1,1,7.69,0A3.82,3.82,0,0,1,47.67,20.26Z"/></svg>