<svg xmlns="http://www.w3.org/2000/svg" viewBox="0 0 35 35"><defs><style>.cls-1{fill:none;stroke:#424143;stroke-miterlimit:10;stroke-width:2.5px;}</style></defs><g id="Layer_1" data-name="Layer 1"><path class="cls-1" d="M12.09,25.33c-3.43.54-5.76,1.55-5.76,2.72,0,1.57,4.21,2.87,9.67,3.07q.73,0,1.5,0t1.5,0c5.46-.2,9.67-1.5,9.67-3.07,0-1.17-2.33-2.18-5.76-2.72"/><path class="cls-1" d="M26.19,12.54c0,4.26-6.86,12.7-8.39,14.53a.39.39,0,0,1-.6,0C15.67,25.24,8.81,16.8,8.81,12.54a8.69,8.69,0,0,1,17.38,0Z"/><circle class="cls-1" cx="17.5" cy="12.08" r="2.87"/></g></svg>